<svg xmlns="http://www.w3.org/2000/svg" width="128" height="128"><path fill="none" stroke="#000" stroke-width="5" stroke-miterlimit="10" d="M124.32 71.24l-.08-.11-.1-.1-5.97-6.84a3.6 3.6 0 00-2.8-1.34H82.9l-4.29-25.23v-.03l-.01-.03a3.9 3.9 0 00-1.35-2.27l-.11-.1-.13-.08L47.45 15.4a5 5 0 00-2.94-.77h-1.04c-1.1 0-1.86.18-2.28.45-.24.08-.48.2-.7.34l-29.54 19.7-.12.08-.11.1a3.91 3.91 0 00-1.35 2.27v.03l-.01.03L3 75a3.88 3.88 0 005.95 3.96l12.37 35.27.68 1.95H49.1l54.52.4 1.36.01.88-1.03 12.66-14.94c.13-.16.25-.33.35-.5l2.28-.03a3.47 3.47 0 003.43-3.08l.01-.13v-.14l.48-22.92c.06-.92-.2-1.83-.74-2.58z"/><linearGradient id="e" gradientUnits="userSpaceOnUse" x1="63.78" y1="56.18" x2="63.78" y2="115.18"><stop offset=".11" stop-color="#7c7d80"/><stop offset=".33" stop-color="#78797c"/><stop offset=".56" stop-color="#6c6c6f"/><stop offset=".8" stop-color="#575759"/><stop offset="1" stop-color="#414042"/></linearGradient><path fill="url(#e)" d="M49.08 114.77H23L9.62 76.61 42.2 56.6a2.77 2.77 0 012.84-.03l34.2 20.06-7.75 18.96 44.33.58c.84.01 1.58.5 1.93 1.26.35.77.22 1.64-.32 2.29l-13.11 15.47-55.24-.41z"/><path fill="#231F20" d="M43.64 57.68c.23 0 .45.06.64.17l33.09 19.4-8.1 19.8 46.53.61c.55 0 .84.66.49 1.08l-12.66 14.93-54.54-.4H24.06L11.43 77.26l31.55-19.4c.2-.12.43-.18.66-.18m0-3c-.78 0-1.56.22-2.23.63L9.86 74.7 7.8 75.96l.8 2.28 12.63 36.01.7 2.01H49.1l54.52.4 1.4.01.9-1.07 12.67-14.93a3.67 3.67 0 00.53-3.88 3.62 3.62 0 00-3.28-2.14l-42.12-.55 6.43-15.71.99-2.41-2.25-1.32-33.08-19.4a4.28 4.28 0 00-2.16-.59z"/><path d="M89.6 106.07h-6.7l5.56-8.41h6.7zM99 106.07h-6.7l5.55-8.41h6.7z"/><linearGradient id="f" gradientUnits="userSpaceOnUse" x1="96.99" y1="64.26" x2="96.99" y2="99.16"><stop offset=".2" stop-color="#414042"/><stop offset=".3" stop-color="#7c7d80"/></linearGradient><path fill="url(#f)" d="M72.17 99.16a1.85 1.85 0 01-1.74-2.5l12.5-32.4h32.44c.67 0 1.3.3 1.72.83l6.04 6.91.04.06c.36.49.52 1.08.48 1.69l-.48 23.03v.07a2.07 2.07 0 01-2.06 1.83l-48.94.48z"/><path fill="#231F20" d="M115.37 65.76c.22 0 .43.1.56.28l6.03 6.9c.15.2.22.47.19.72l-.48 23.02a.57.57 0 01-.56.5l-48.94.48a.35.35 0 01-.33-.48l12.12-31.42h31.4m0-3H81.9l-.74 1.92L69.04 96.1l-.01.03-.01.02a3.35 3.35 0 003.15 4.5l48.97-.47c1.78 0 3.3-1.35 3.51-3.15l.02-.15v-.14l.48-22.92c.06-.94-.2-1.88-.76-2.65l-.08-.1-.1-.11-5.97-6.83a3.7 3.7 0 00-2.87-1.37z"/><g><linearGradient id="g" gradientUnits="userSpaceOnUse" x1="42.78" y1="57.84" x2="9.98" y2="38.9"><stop offset=".11" stop-color="#7c7d80"/><stop offset=".33" stop-color="#78797c"/><stop offset=".56" stop-color="#6c6c6f"/><stop offset=".8" stop-color="#575759"/><stop offset="1" stop-color="#414042"/></linearGradient><path fill="url(#g)" d="M6.84 78.19a2.5 2.5 0 01-2.45-2.97l6.36-37.36c.1-.6.42-1.12.87-1.48l.05-.05L41.68 16.3l.53-.02c.9 0 1.64.74 1.64 1.64V55.3c0 .75-.33 1.45-.92 1.93l-.08.07L8.3 77.7c-.43.31-.93.48-1.46.48z"/><path fill="#231F20" d="M42.22 17.79c.07 0 .13.06.13.14V55.3a1 1 0 01-.36.76L7.46 76.46a.97.97 0 01-.62.23 1 1 0 01-.98-1.18l6.36-37.4a.98.98 0 01.35-.57L42.14 17.8a.15.15 0 01.08-.02m0-3c-.64 0-1.25.19-1.77.55L10.9 35.03l-.12.08-.11.1a3.99 3.99 0 00-1.4 2.33v.06L2.9 74.98a3.97 3.97 0 003.93 4.7c.81 0 1.61-.25 2.28-.71l34.4-20.31.19-.12.17-.14a3.97 3.97 0 001.47-3.1V17.93c0-1.73-1.4-3.14-3.13-3.14z"/></g><g><linearGradient id="h" gradientUnits="userSpaceOnUse" x1="77.99" y1="38.9" x2="45.19" y2="57.84"><stop offset=".07" stop-color="#414042"/><stop offset=".25" stop-color="#575759"/><stop offset=".47" stop-color="#6c6c6f"/><stop offset=".69" stop-color="#78797c"/><stop offset=".89" stop-color="#7c7d80"/></linearGradient><path fill="url(#h)" d="M81.13 78.19c-.53 0-1.04-.17-1.47-.48L45.12 57.3l-.09-.07a2.48 2.48 0 01-.92-1.93V17.93c0-.9.74-1.64 1.64-1.64h.47l.45.28L76.3 36.34l.05.05c.45.37.76.88.87 1.45l6.36 37.43c.14.7-.05 1.44-.52 2.01a2.5 2.5 0 01-1.94.92z"/><path fill="#231F20" d="M45.75 17.79c.03 0 .06 0 .08.02L75.4 37.54c.18.14.3.35.34.57l6.36 37.4a1 1 0 01-1.6.95L45.98 56.07a1 1 0 01-.37-.77V17.93c0-.08.07-.14.14-.14m0-3a3.14 3.14 0 00-3.14 3.14V55.3c0 1.2.54 2.33 1.48 3.09l.17.14.2.12 34.39 20.3a4 4 0 006.2-3.98L78.7 37.61v-.03l-.01-.03a4 4 0 00-1.38-2.33l-.12-.1-.13-.08L47.5 15.32a3.1 3.1 0 00-1.74-.53z"/></g><path d="M48.08 116.31h-9.55l-1.6-11.26a5.76 5.76 0 013.13-5.12c1.91-.98 4.17-1 6.11-.07l.2.1a5.76 5.76 0 013.26 5.18l-1.55 11.17zM46.98 81.95h-7.36l-1.24-8.54c0-1.65.93-3.15 2.42-3.9a5.37 5.37 0 014.7-.05l.17.08a4.37 4.37 0 012.5 3.93l-1.19 8.48z"/></svg>