<svg xmlns="http://www.w3.org/2000/svg" width="128" height="128"><g><path d="M65.9 24.6c.2 0 33 27 33 27 .2.2.4.5.4.8l7.8 47.1c.2 1 0 1.6-.6 1.6-.2 0-.4 0-.7-.3l-5.3-4.2-1.8 3-9.2 15.8H38.8l-9.2-15-2.2-3.5-4.9 4-.7.2c-.5 0-.8-.7-.6-1.6l7.8-47c0-.4.2-.7.5-.9 0 0 32.7-27 33-27h3.4m-3.5-5c-1.8 0-2.6.7-4.6 2.3a734.5 734.5 0 00-15.1 12.4L26.3 47.8a6.3 6.3 0 00-2.2 3.8l-7.8 47c-.4 2.1 0 4.1 1.2 5.5 1 1.3 2.7 2 4.3 2a6 6 0 003.9-1.4l.4-.4 8.5 13.7a5 5 0 004.2 2.4h50.7a5 5 0 004.3-2.5l8-13.8.9.6a6 6 0 003.8 1.4c1.7 0 3.2-.7 4.3-2a6.6 6.6 0 001.3-5.4l-7.8-47v-.2c-.3-1.4-1.1-2.8-2.2-3.7A11818 11818 0 0074.3 25c-6.5-5.4-6.5-5.4-8.4-5.4h-3.4z"/><linearGradient id="d" gradientUnits="userSpaceOnUse" x1="64.1" y1="71.6" x2="64.1" y2="116.9"><stop offset=".1" stop-color="#e07d65"/><stop offset=".3" stop-color="#dc7961"/><stop offset=".5" stop-color="#d06e54"/><stop offset=".7" stop-color="#bd5b3e"/><stop offset=".9" stop-color="#a24120"/><stop offset="1" stop-color="#93320f"/></linearGradient><path fill="url(#d)" d="M38 117L27.7 100 64 71.6l36.5 27.6L90.3 117z"/><path fill="#482402" d="M64.2 73.5l34.5 26.1-9.2 15.8H38.8l-9.2-15 34.6-27m0-3.7L62.2 71l-34.5 27-2.1 1.7L27 102l9.2 14.9.9 1.4H91.2l.9-1.5 9.2-15.8 1.3-2.3-2.1-1.6L66 71.1 64 69.7z"/><linearGradient id="e" gradientUnits="userSpaceOnUse" x1="61.3" y1="73.7" x2="26.5" y2="53.6"><stop offset=".1" stop-color="#e07d65"/><stop offset="1" stop-color="#93320f"/></linearGradient><path fill="url(#e)" d="M21.8 102.6a2 2 0 01-1.6-.7c-.5-.7-.7-1.6-.5-2.6l7.8-47.1c.1-.7.5-1.3 1-1.7C61.6 23 61.7 23 62.5 23h1.4v45.2c0 .8-.3 1.6-1 2.2L23.4 102c-.5.4-1 .6-1.6.6z"/><path fill="#482402" d="M62.4 24.6v43.7c0 .4-.1.8-.5 1l-39.4 31.5-.7.3c-.5 0-.8-.7-.6-1.6l7.8-47c0-.4.2-.7.5-.9 0 0 32.7-27 33-27m0-3h-.1c-1.1 0-1.1 0-7.1 5l-11.4 9.2-16.4 13.5c-.7.7-1.3 1.6-1.5 2.6L18.2 99c-.2 1.5 0 2.9.9 3.8.6.9 1.7 1.3 2.7 1.3a4 4 0 002.6-1l39.4-31.4c1-.9 1.6-2.1 1.6-3.4V21.6h-3z"/><g><linearGradient id="f" gradientUnits="userSpaceOnUse" x1="101.8" y1="53.6" x2="67" y2="73.7"><stop offset="0" stop-color="#93320f"/><stop offset=".9" stop-color="#e07d65"/></linearGradient><path fill="url(#f)" d="M106.5 102.6c-.6 0-1.1-.2-1.6-.6L65.4 70.5c-.6-.6-1-1.4-1-2.2V23h1.5c.7 0 1.1.3 34 27.4.4.4.8 1 .9 1.7l7.8 47c.2 1.1 0 2-.5 2.7a2 2 0 01-1.6.7z"/><path fill="#482402" d="M65.9 24.6c.2 0 33 27 33 27 .2.2.4.5.4.8l7.8 47.1c.2 1 0 1.6-.6 1.6-.2 0-.4 0-.7-.3L66.4 69.3c-.3-.2-.5-.6-.5-1V24.6m0-3h-3v46.7c0 1.3.6 2.5 1.6 3.3l39.4 31.6c1 .8 2 1 2.6 1 1 0 2-.5 2.7-1.4.9-1 1.2-2.3.9-3.8l-7.8-47v-.1c-.2-1-.7-2-1.5-2.6L84.4 35.8 73 26.5c-6-4.9-6-4.9-7.1-4.9z"/></g><path d="M69.8 118.7H58.5l-1-11.8a6 6 0 013.3-5.4c2-1 4.4-1 6.4 0h.2a6 6 0 013.4 5.5l-1 11.7z"/></g></svg>