<svg xmlns="http://www.w3.org/2000/svg" width="128" height="128"><g><path d="M65.65 22.77c.25 0 32.98 27.03 32.98 27.03.24.2.4.48.46.79l7.8 47.1c.18.9-.09 1.6-.63 1.6-.2 0-.43-.08-.69-.3l-5.34-4.27-1.78 3.07-9.21 15.79H38.6l-9.2-14.94-2.24-3.55-4.89 3.9c-.26.21-.5.3-.69.3-.54 0-.8-.7-.63-1.6l7.8-47.1c.06-.31.23-.59.47-.79 0 0 32.73-27.04 32.98-27.03h3.45m-3.46-5c-1.8 0-2.63.66-4.62 2.26a4373.98 4373.98 0 00-15.14 12.4c-8.21 6.75-16.4 13.52-16.4 13.52a6.36 6.36 0 00-2.21 3.82l-7.8 47.06a6.62 6.62 0 001.27 5.44 5.55 5.55 0 004.3 2.03c.95 0 2.39-.25 3.84-1.43l.47-.38 8.45 13.71a5 5 0 004.26 2.38h50.63a5 5 0 004.32-2.48l8.07-13.85.82.65a6 6 0 003.81 1.4c1.67 0 3.23-.74 4.3-2.03a6.62 6.62 0 001.26-5.44l-7.8-47.06c0-.04 0-.08-.02-.12a6.36 6.36 0 00-2.18-3.7L85.4 32.42l-11.34-9.3c-6.53-5.33-6.53-5.33-8.36-5.36H62.2z"/><linearGradient id="d" gradientUnits="userSpaceOnUse" x1="64.07" y1="69.5" x2="64.07" y2="114.85"><stop offset=".11" stop-color="#7c7d80"/><stop offset=".33" stop-color="#78797c"/><stop offset=".56" stop-color="#6c6c6f"/><stop offset=".8" stop-color="#575759"/><stop offset="1" stop-color="#414042"/></linearGradient><path fill="url(#d)" d="M37.92 114.85l-10.35-16.8 36.5-28.55 36.5 27.67-10.31 17.68z"/><path fill="#231F20" d="M64.08 71.4L98.6 97.55l-9.2 15.79H38.75l-9.2-14.94 34.52-27.02m-.03-3.78l-1.82 1.42L27.7 96.05l-2.12 1.65L27 99.98l9.2 14.94.89 1.43h54.03l.87-1.5 9.2-15.78 1.34-2.3-2.12-1.6L65.9 69l-1.84-1.4z"/><linearGradient id="e" gradientUnits="userSpaceOnUse" x1="61.19" y1="71.58" x2="26.43" y2="51.51"><stop offset=".11" stop-color="#7c7d80"/><stop offset=".33" stop-color="#78797c"/><stop offset=".56" stop-color="#6c6c6f"/><stop offset=".8" stop-color="#575759"/><stop offset="1" stop-color="#414042"/></linearGradient><path fill="url(#e)" d="M21.74 100.57c-.63 0-1.2-.27-1.6-.76-.53-.64-.7-1.57-.5-2.63l7.79-47.07c.13-.69.48-1.28.99-1.7 33.14-27.37 33.17-27.37 33.93-27.37h1.5V66.2c0 .86-.38 1.67-1.05 2.21L23.37 99.94c-.52.41-1.07.63-1.63.63z"/><path fill="#231F20" d="M62.35 22.54V66.2c0 .4-.18.79-.5 1.04L22.44 98.76c-.26.22-.5.31-.7.31-.53 0-.8-.7-.62-1.6l7.8-47.11c.06-.31.22-.59.46-.79 0 0 32.73-27.03 32.98-27.04m0-3h-.01c-1.15 0-1.15 0-7.14 4.9l-11.34 9.3-16.4 13.53a4.35 4.35 0 00-1.5 2.53v.04l-.01.04-7.8 47.07a4.58 4.58 0 00.84 3.83c.68.83 1.68 1.3 2.75 1.3.63 0 1.59-.17 2.59-.98l39.4-31.5a4.33 4.33 0 001.62-3.39V19.54h-3z"/><g><linearGradient id="f" gradientUnits="userSpaceOnUse" x1="101.73" y1="51.51" x2="66.97" y2="71.59"><stop offset=".07" stop-color="#414042"/><stop offset=".25" stop-color="#575759"/><stop offset=".47" stop-color="#6c6c6f"/><stop offset=".69" stop-color="#78797c"/><stop offset=".89" stop-color="#7c7d80"/></linearGradient><path fill="url(#f)" d="M106.42 100.57c-.56 0-1.12-.22-1.64-.64L65.36 68.41a2.83 2.83 0 01-1.06-2.22V21.04h1.52c.74 0 1.14.3 33.92 27.38.51.42.86 1.01.98 1.66l7.8 47.14a3.1 3.1 0 01-.5 2.6c-.41.48-.98.75-1.6.75z"/><path fill="#231F20" d="M65.8 22.54c.25 0 32.98 27.03 32.98 27.03.24.2.4.48.47.79l7.8 47.1c.17.9-.1 1.61-.63 1.61-.2 0-.43-.1-.7-.3L66.3 67.24c-.32-.26-.5-.64-.5-1.05V22.53m0-3h-3V66.2c0 1.32.59 2.55 1.61 3.38l39.44 31.52c.98.8 1.94.97 2.57.97 1.06 0 2.06-.47 2.75-1.3.81-.98 1.1-2.34.83-3.83l-7.8-47.07v-.06c-.2-1-.72-1.9-1.5-2.55L84.3 33.74l-11.34-9.3c-6-4.9-6-4.9-7.16-4.9z"/></g><path d="M69.77 116.6H58.4l-.97-11.81a6.04 6.04 0 013.28-5.38 7.2 7.2 0 016.4-.07l.23.1c2.09 1.02 3.4 3.13 3.4 5.44l-.96 11.71z"/></g></svg>