<svg xmlns="http://www.w3.org/2000/svg" width="112.252" height="112.253"><radialGradient id="a" cx="152.067" cy="-173.874" r="48.5" gradientTransform="matrix(1 0 0 -1 -96 -117.747)" gradientUnits="userSpaceOnUse"><stop offset="0" stop-color="#939598"/><stop offset=".177" stop-color="#8f9194"/><stop offset=".361" stop-color="#838587"/><stop offset=".548" stop-color="#707073"/><stop offset=".737" stop-color="#555456"/><stop offset=".926" stop-color="#332f31"/><stop offset="1" stop-color="#231f20"/></radialGradient><path d="M56.067 104.626c-26.743 0-48.5-21.758-48.5-48.5 0-26.743 21.757-48.5 48.5-48.5s48.5 21.757 48.5 48.5-21.755 48.5-48.5 48.5z" fill="url(#a)"/><path d="M56.067 9.126c25.958 0 47 21.043 47 47 0 25.958-21.043 47-47 47s-47-21.043-47-47 21.043-47 47-47m0-3c-27.57 0-50 22.431-50 50 0 27.57 22.43 50 50 50 27.571 0 50-22.431 50-50s-22.429-50-50-50z" fill="#1c1c1c"/><path d="M56.067 11.126c24.813 0 45 20.188 45 45 0 24.813-20.188 45-45 45s-45-20.188-45-45 20.187-45 45-45m0-2c-25.957 0-47 21.043-47 47 0 25.958 21.043 47 47 47 25.958 0 47-21.043 47-47s-21.043-47-47-47z" fill="#fff"/></svg>