<svg xmlns="http://www.w3.org/2000/svg" width="112.252" height="112.252"><radialGradient id="a" cx="152.067" cy="-173.874" r="48.5" gradientTransform="matrix(1 0 0 -1 -96 -117.748)" gradientUnits="userSpaceOnUse"><stop offset="0" stop-color="#dd8758"/><stop offset=".283" stop-color="#da8557"/><stop offset=".471" stop-color="#d17d54"/><stop offset=".631" stop-color="#c26f4e"/><stop offset=".775" stop-color="#ad5c46"/><stop offset=".907" stop-color="#92443b"/><stop offset="1" stop-color="#7a2e32"/></radialGradient><path d="M56.067 104.626c-26.743 0-48.5-21.757-48.5-48.5s21.757-48.5 48.5-48.5 48.5 21.757 48.5 48.5-21.755 48.5-48.5 48.5z" fill="url(#a)"/><path d="M56.067 9.126c25.958 0 47 21.042 47 47 0 25.957-21.043 47-47 47s-47-21.043-47-47c0-25.958 21.043-47 47-47m0-3c-27.57 0-50 22.43-50 50s22.43 50 50 50c27.571 0 50-22.43 50-50s-22.429-50-50-50z" fill="#722716"/><path d="M56.067 11.126c24.813 0 45 20.187 45 45 0 24.812-20.188 45-45 45s-45-20.188-45-45c0-24.813 20.187-45 45-45m0-2c-25.957 0-47 21.042-47 47 0 25.957 21.043 47 47 47 25.958 0 47-21.043 47-47 0-25.958-21.043-47-47-47z" fill="#fff"/></svg>