<svg xmlns="http://www.w3.org/2000/svg" width="112.252" height="112.252"><radialGradient id="a" cx="152.126" cy="-173.874" r="48.5" gradientTransform="matrix(1 0 0 -1 -96 -117.748)" gradientUnits="userSpaceOnUse"><stop offset=".076" stop-color="#ec6f66"/><stop offset=".25" stop-color="#ec6961"/><stop offset=".494" stop-color="#ec5652"/><stop offset=".777" stop-color="#ec393b"/><stop offset=".965" stop-color="#ec2128"/><stop offset="1" stop-color="#ec1c24"/></radialGradient><path d="M56.126 104.626c-26.743 0-48.5-21.757-48.5-48.5s21.757-48.5 48.5-48.5 48.5 21.757 48.5 48.5-21.757 48.5-48.5 48.5z" fill="url(#a)"/><path d="M56.126 9.126c25.957 0 47 21.042 47 47 0 25.957-21.043 47-47 47-25.958 0-47-21.043-47-47 0-25.958 21.042-47 47-47m0-3c-27.57 0-50 22.43-50 50s22.43 50 50 50 50-22.43 50-50-22.43-50-50-50z" fill="#9b192c"/><path d="M56.126 11.126c24.812 0 45 20.187 45 45 0 24.812-20.188 45-45 45-24.813 0-45-20.188-45-45 0-24.813 20.186-45 45-45m0-2c-25.958 0-47 21.042-47 47 0 25.957 21.042 47 47 47 25.957 0 47-21.043 47-47 0-25.958-21.043-47-47-47z" fill="#fff"/></svg>