<svg xmlns="http://www.w3.org/2000/svg" width="112.252" height="112.253"><radialGradient id="a" cx="152.126" cy="-175.655" r="48.5" gradientTransform="matrix(1 0 0 -1 -96 -117.747)" gradientUnits="userSpaceOnUse"><stop offset="0" stop-color="#fbb122"/><stop offset=".213" stop-color="#faad22"/><stop offset=".434" stop-color="#f9a022"/><stop offset=".659" stop-color="#f68c21"/><stop offset=".884" stop-color="#f26f20"/><stop offset="1" stop-color="#ef5d20"/></radialGradient><path d="M56.126 106.408c-26.743 0-48.5-21.758-48.5-48.5 0-26.744 21.757-48.5 48.5-48.5s48.5 21.757 48.5 48.5c0 26.742-21.757 48.5-48.5 48.5z" fill="url(#a)"/><path d="M56.126 10.907c25.957 0 47 21.042 47 47 0 25.957-21.043 47-47 47-25.958 0-47-21.043-47-47 0-25.958 21.042-47 47-47m0-3c-27.57 0-50 22.43-50 50 0 27.569 22.43 50 50 50s50-22.431 50-50c0-27.57-22.43-50-50-50z" fill="#c65305"/><path d="M56.126 12.907c24.812 0 45 20.187 45 45 0 24.812-20.188 45-45 45-24.813 0-45-20.188-45-45 0-24.813 20.186-45 45-45m0-2c-25.958 0-47 21.042-47 47 0 25.957 21.042 47 47 47 25.957 0 47-21.043 47-47 0-25.958-21.043-47-47-47z" fill="#fff"/></svg>