<svg xmlns="http://www.w3.org/2000/svg" width="292.1" height="406.3"><style>.st17{font-family:&apos;Gilroy-SemiBold&apos;}.st71{fill:#223948}.st198{fill:#c2e1d8}.st231{fill:#66c2e2}.st237{display:inline}.st263{font-size:50}.st360{display:none}.st381{fill:#414042}</style><g id="Development_cards"><g id="Monopoly"><radialGradient id="SVGID_1_" cx="143.8" cy="200.2" r="163.9" gradientTransform="matrix(0 -1 1.0315 0 -62.7 344)" gradientUnits="userSpaceOnUse"><stop offset="0" stop-color="#c889ba"/><stop offset=".2" stop-color="#bf83ba"/><stop offset=".5" stop-color="#a774ba"/><stop offset="1" stop-color="#7f5cba"/><stop offset="1" stop-color="#7c5aba"/></radialGradient><path d="M17.2 390.2A6.2 6.2 0 0111 384V16.4c0-3.4 2.8-6.2 6.2-6.2h253.2c3.4 0 6.1 2.8 6.1 6.2V384c0 3.4-2.7 6.2-6.1 6.2H17.2z" fill="url(#SVGID_1_)"/><path d="M266.5 20.2v360H21v-360h245.5m3.9-20H17.2C8.2.2 1 7.4 1 16.4V384c0 9 7.3 16.2 16.2 16.2h253.2c9 0 16.1-7.3 16.1-16.2V16.4c0-9-7.2-16.2-16.1-16.2z" fill="#c99ee8"/><path class="st381" d="M270.4 10.2c3.4 0 6.1 2.8 6.1 6.2V384c0 3.4-2.7 6.2-6.1 6.2H17.2A6.2 6.2 0 0111 384V16.4c0-3.4 2.8-6.2 6.2-6.2h253.2m0-10H17.2C8.2.2 1 7.4 1 16.4V384c0 9 7.3 16.2 16.2 16.2h253.2c9 0 16.1-7.3 16.1-16.2V16.4c0-9-7.2-16.2-16.1-16.2z"/></g><g id="Card_x5F_Icons"><g id="_x3F__7_"><radialGradient id="SVGID_2_" cx="85.1" cy="90.6" r="52.8" gradientTransform="matrix(0 -1 1.0083 0 -6.2 175.7)" gradientUnits="userSpaceOnUse"><stop offset="0" stop-color="#32b4ba"/><stop offset=".2" stop-color="#30abba"/><stop offset=".4" stop-color="#2b93ba"/><stop offset=".8" stop-color="#236bba"/><stop offset="1" stop-color="#1d4bba"/></radialGradient><path d="M71.7 148.2a7.8 7.8 0 01-7.5-5.5L37.9 60a7.9 7.9 0 015.1-9.8l53.2-16.9a7.9 7.9 0 019.8 5.1l26.3 82.7c1.3 4.2-1 8.6-5.1 9.9L74 147.9c-.7.2-1.5.3-2.3.3z" fill="url(#SVGID_2_)"/><path class="st231" d="M98.5 36c2.1 0 4 1.3 4.6 3.3l26.3 82.7c.8 2.6-.6 5.3-3.1 6.1L73 145l-1.4.2c-2.2 0-4-1.3-4.7-3.4L40.8 59.1c-.8-2.5.6-5.3 3.1-6l53.2-17 1.4-.2m0-6c-1 0-2.2.2-3.3.5l-53 16.9c-5.8 1.8-9 8-7.1 13.6l26.2 82.8a10.9 10.9 0 0013.6 7l53.2-16.9c5.7-1.8 8.8-7.9 7-13.6L109 37.5a10.9 10.9 0 00-10.4-7.6z"/><path class="st381" d="M98.5 33c3.5 0 6.5 2.1 7.5 5.4l26.3 82.7c1.3 4.2-1 8.6-5.1 9.9L74 147.9a7.9 7.9 0 01-9.8-5.2L37.9 60a7.9 7.9 0 015.1-9.8l53.1-16.9c.8-.2 1.6-.4 2.4-.4m0-3c-1 0-2.2.2-3.3.5l-53 16.9c-5.8 1.8-9 8-7.1 13.6l26.2 82.8a10.9 10.9 0 0013.6 7l53.2-16.9c5.7-1.8 8.8-7.9 7-13.6L109 37.5a10.9 10.9 0 00-10.4-7.6z"/></g><g id="Question_8_"><linearGradient id="SVGID_3_" gradientUnits="userSpaceOnUse" x1="90.4" y1="110.6" x2="90.4" y2="101"><stop offset="0" stop-color="#70aefe"/><stop offset=".2" stop-color="#83bcfe"/><stop offset=".5" stop-color="#abd7fe"/><stop offset=".8" stop-color="#c3e9fe"/><stop offset="1" stop-color="#cceffe"/></linearGradient><path d="M90.4 110.6l-1-.1a4.8 4.8 0 111 0z" fill="url(#SVGID_3_)"/><path class="st71" d="M90.4 101.5h.9a4.3 4.3 0 01-1.8 8.5 4.3 4.3 0 01.9-8.5m0-1c-1.5 0-2.9.6-3.9 1.7a5.3 5.3 0 103.9-1.7z"/><g><linearGradient id="SVGID_4_" gradientUnits="userSpaceOnUse" x1="83.2" y1="97.7" x2="83.2" y2="71.8"><stop offset="0" stop-color="#70aefe"/><stop offset=".2" stop-color="#83bcfe"/><stop offset=".5" stop-color="#abd7fe"/><stop offset=".8" stop-color="#c3e9fe"/><stop offset="1" stop-color="#cceffe"/></linearGradient><path d="M84.1 97.7a.6.6 0 01-.6-.5c-.8-3 .4-6.4 2-8.7 1.8-2.7 2.6-5.2 2-6.8-.4-1.4-1.4-2.1-2.9-2.1-.6 0-1.2 0-1.9.3-2.5.8-3.8 2.6-4 5.5 0 .3-.3.6-.7.6l-6.6-1.5a.6.6 0 01-.4-.6 13 13 0 019.6-11.5 13 13 0 018.7.2c2.8 1 4.8 3.2 5.7 6.3 1.4 4.2-.6 7.7-2.1 10.5-1.2 2-2.2 3.9-1.8 5.5.1.3 0 .6-.4.7l-6.4 2H84z" fill="url(#SVGID_4_)"/><path class="st71" d="M84.7 72.3c1.5 0 3 .2 4.4.8 2.7 1 4.5 3 5.4 5.9 2.3 7.1-5 11.8-3.8 16l-.1.2-6.4 2-.2-.1c-.8-2.8.4-6.2 1.9-8.3 1.4-2.1 2.8-5.1 2.1-7.2a3.3 3.3 0 00-3.4-2.5 7 7 0 00-2 .3c-2.7.9-4.2 2.9-4.4 6H78L71.6 84c-.1 0-.2 0-.1-.1.4-5.4 4.1-9.4 9.3-11 1.3-.4 2.6-.6 4-.6m0-1c-1.5 0-2.9.2-4.3.6a13.6 13.6 0 00-10 12c0 .5.3 1 .8 1.1l6.5 1.5h.2c.6 0 1.1-.5 1.2-1 .2-2.8 1.4-4.4 3.7-5.1a6 6 0 011.7-.3c1.3 0 2.1.6 2.5 1.8.4 1.4-.3 3.8-2 6.4-1.6 2.3-3 5.9-2 9 0 .5.5.9 1 .9h.4l6.4-2c.6-.3.9-.9.7-1.5-.4-1.4.6-3 1.7-5 1.6-3 3.6-6.5 2.2-11-1-3.2-3-5.5-6-6.6-1.6-.5-3.2-.8-4.8-.8z"/></g></g><g id="_x3F__12_"><radialGradient id="SVGID_5_" cx="143.4" cy="90.6" r="52.8" gradientTransform="matrix(0 -1 1.0083 0 52 234)" gradientUnits="userSpaceOnUse"><stop offset="0" stop-color="#32b4ba"/><stop offset=".2" stop-color="#30abba"/><stop offset=".4" stop-color="#2b93ba"/><stop offset=".8" stop-color="#236bba"/><stop offset="1" stop-color="#1d4bba"/></radialGradient><path d="M130 148.2a7.8 7.8 0 01-7.5-5.5L96.2 60a7.9 7.9 0 015.2-9.8l53-16.9a7.9 7.9 0 0110 5.1l26.2 82.7c1.3 4.2-1 8.6-5.1 9.9l-53.1 16.9-2.4.3z" fill="url(#SVGID_5_)"/><path class="st231" d="M156.9 36c2 0 4 1.3 4.6 3.3l26.2 82.7c.8 2.6-.6 5.3-3.1 6.1L131.5 145l-1.5.2c-2.1 0-4-1.3-4.6-3.4L99 59.1c-.8-2.5.6-5.3 3.2-6l53-17 1.6-.2m0-6c-1.1 0-2.2.2-3.3.5l-53.2 16.9c-5.7 1.8-8.8 8-7 13.6l26.2 82.8a10.9 10.9 0 0013.7 7l53-16.9c5.8-1.8 9-7.9 7.2-13.6l-26.3-82.7a10.9 10.9 0 00-10.3-7.6z"/><path class="st381" d="M156.9 33c3.4 0 6.4 2.1 7.4 5.4l26.3 82.7c1.3 4.2-1 8.6-5.1 9.9l-53.1 16.9a7.9 7.9 0 01-9.9-5.2L96.2 60a7.9 7.9 0 015.2-9.8l53-16.9c.9-.2 1.7-.4 2.5-.4m0-3c-1.1 0-2.2.2-3.3.5l-53.2 16.9c-5.7 1.8-8.8 8-7 13.6l26.2 82.8a10.9 10.9 0 0013.7 7l53-16.9c5.8-1.8 9-7.9 7.2-13.6l-26.3-82.7a10.9 10.9 0 00-10.3-7.6z"/></g><g id="Question_15_"><linearGradient id="SVGID_6_" gradientUnits="userSpaceOnUse" x1="148.7" y1="110.6" x2="148.7" y2="101"><stop offset="0" stop-color="#70aefe"/><stop offset=".2" stop-color="#83bcfe"/><stop offset=".5" stop-color="#abd7fe"/><stop offset=".8" stop-color="#c3e9fe"/><stop offset="1" stop-color="#cceffe"/></linearGradient><path d="M148.7 110.6l-1-.1a4.8 4.8 0 111 0z" fill="url(#SVGID_6_)"/><path class="st71" d="M148.7 101.5h.9a4.3 4.3 0 01-1.8 8.5 4.3 4.3 0 01.9-8.5m0-1c-1.5 0-2.9.6-3.8 1.7a5.3 5.3 0 002.7 8.8h1.1c1.5 0 2.9-.5 3.9-1.6a5.3 5.3 0 00-2.8-8.8 5 5 0 00-1.1-.1z"/><g><linearGradient id="SVGID_7_" gradientUnits="userSpaceOnUse" x1="141.5" y1="97.7" x2="141.5" y2="71.8"><stop offset="0" stop-color="#70aefe"/><stop offset=".2" stop-color="#83bcfe"/><stop offset=".5" stop-color="#abd7fe"/><stop offset=".8" stop-color="#c3e9fe"/><stop offset="1" stop-color="#cceffe"/></linearGradient><path d="M142.5 97.7a.6.6 0 01-.6-.5c-1-3 .4-6.4 1.9-8.7 1.8-2.7 2.6-5.2 2-6.8-.4-1.4-1.3-2.1-2.9-2.1-.5 0-1.2 0-1.9.3-2.4.8-3.8 2.6-4 5.5 0 .3-.3.6-.6.6l-6.6-1.5a.6.6 0 01-.5-.6 13 13 0 019.6-11.5c1.4-.4 2.8-.6 4.2-.6 1.5 0 3 .2 4.5.8 2.9 1 4.8 3.2 5.7 6.3 1.4 4.2-.6 7.7-2.1 10.5-1.2 2-2.2 3.9-1.7 5.5 0 .3-.1.6-.4.7l-6.5 2h-.1z" fill="url(#SVGID_7_)"/><path class="st71" d="M143 72.3c1.6 0 3 .2 4.5.8 2.7 1 4.4 3 5.4 5.9 2.2 7.1-5 11.8-4 16 .1 0 0 .1 0 .2l-6.4 2-.2-.1c-.8-2.8.5-6.2 1.9-8.3 1.4-2.1 2.8-5.1 2.2-7.2a3.3 3.3 0 00-3.5-2.5 7 7 0 00-2 .3c-2.7.9-4.2 2.9-4.4 6h-.1l-6.5-1.4-.1-.1c.4-5.4 4.1-9.4 9.3-11 1.3-.4 2.7-.6 4-.6m0-1c-1.4 0-2.9.2-4.3.6a13.6 13.6 0 00-10 12c0 .5.3 1 .9 1.1l6.4 1.5H136.4c.6 0 1-.5 1-1 .3-2.8 1.5-4.4 3.8-5.1a6 6 0 011.7-.3c1.3 0 2.1.6 2.5 1.8.5 1.4-.3 3.8-2 6.4-1.6 2.3-3 5.9-2 9 .1.6.6.9 1 .9h.4l6.4-2c.6-.3 1-.9.8-1.5-.4-1.4.5-3 1.6-5 1.6-3 3.6-6.5 2.2-11-1-3.2-3-5.5-6-6.6-1.5-.5-3.1-.8-4.7-.8z"/></g></g><g id="_x3F__2_"><radialGradient id="SVGID_8_" cx="203.2" cy="90.6" r="52.8" gradientTransform="matrix(0 -1 1.0083 0 111.9 293.8)" gradientUnits="userSpaceOnUse"><stop offset="0" stop-color="#32b4ba"/><stop offset=".2" stop-color="#30abba"/><stop offset=".4" stop-color="#2b93ba"/><stop offset=".8" stop-color="#236bba"/><stop offset="1" stop-color="#1d4bba"/></radialGradient><path d="M189.8 148.2a7.8 7.8 0 01-7.5-5.5L156 60a7.9 7.9 0 015.1-9.8l53.2-16.9a7.9 7.9 0 019.8 5.1l26.3 82.7c1.3 4.2-1 8.6-5.1 9.9L192 147.9c-.7.2-1.5.3-2.3.3z" fill="url(#SVGID_8_)"/><path class="st231" d="M216.6 36c2.2 0 4 1.3 4.7 3.3l26.2 82.7c.8 2.6-.6 5.3-3.1 6.1L191.2 145l-1.4.2c-2.2 0-4-1.3-4.7-3.4L159 59.1c-.8-2.5.6-5.3 3.1-6l53.2-17 1.4-.2m0-6c-1 0-2.2.2-3.2.5l-53.2 16.9c-5.7 1.8-8.8 8-7 13.6l26.2 82.8a10.9 10.9 0 0013.7 7l53-16.9c5.8-1.8 9-7.9 7.1-13.6L227 37.5a10.9 10.9 0 00-10.4-7.6z"/><path class="st381" d="M216.6 33c3.5 0 6.5 2.1 7.5 5.4l26.3 82.7c1.3 4.2-1 8.6-5.1 9.9L192 147.9a7.9 7.9 0 01-9.8-5.2L156 60a7.9 7.9 0 015.1-9.8l53.2-16.9c.7-.2 1.5-.4 2.3-.4m0-3c-1 0-2.2.2-3.2.5l-53.2 16.9c-5.7 1.8-8.8 8-7 13.6l26.2 82.8a10.9 10.9 0 0013.7 7l53-16.9c5.8-1.8 9-7.9 7.1-13.6L227 37.5a10.9 10.9 0 00-10.4-7.6z"/></g><g id="Question_2_"><linearGradient id="SVGID_9_" gradientUnits="userSpaceOnUse" x1="208.5" y1="110.6" x2="208.5" y2="101"><stop offset="0" stop-color="#70aefe"/><stop offset=".2" stop-color="#83bcfe"/><stop offset=".5" stop-color="#abd7fe"/><stop offset=".8" stop-color="#c3e9fe"/><stop offset="1" stop-color="#cceffe"/></linearGradient><path d="M208.5 110.6l-1-.1a4.8 4.8 0 01-2.5-8 4.7 4.7 0 014.5-1.4 4.8 4.8 0 012.5 8c-1 1-2.2 1.5-3.5 1.5z" fill="url(#SVGID_9_)"/><path class="st71" d="M208.5 101.5h.9a4.3 4.3 0 01-1.8 8.5 4.3 4.3 0 01.9-8.5m0-1c-1.5 0-2.9.6-3.9 1.7a5.3 5.3 0 002.8 8.8h1.1c1.5 0 2.9-.5 3.8-1.6a5.3 5.3 0 00-2.7-8.8 5 5 0 00-1.1-.1z"/><g><linearGradient id="SVGID_10_" gradientUnits="userSpaceOnUse" x1="201.3" y1="97.7" x2="201.3" y2="71.8"><stop offset="0" stop-color="#70aefe"/><stop offset=".2" stop-color="#83bcfe"/><stop offset=".5" stop-color="#abd7fe"/><stop offset=".8" stop-color="#c3e9fe"/><stop offset="1" stop-color="#cceffe"/></linearGradient><path d="M202.2 97.7a.6.6 0 01-.6-.5c-.8-3 .5-6.4 2-8.7 1.8-2.7 2.6-5.2 2-6.8-.4-1.4-1.4-2.1-2.9-2.1-.6 0-1.2 0-1.9.3-2.5.8-3.8 2.6-4 5.5 0 .3-.3.6-.6.6h-.1l-6.5-1.5a.6.6 0 01-.5-.6 13 13 0 019.6-11.5 13 13 0 018.7.2c2.8 1 4.8 3.2 5.7 6.3 1.4 4.2-.6 7.7-2.1 10.5-1.2 2-2.2 3.9-1.7 5.5 0 .3-.1.6-.4.7l-6.5 2h-.2z" fill="url(#SVGID_10_)"/><path class="st71" d="M202.8 72.3c1.5 0 3 .2 4.5.8 2.6 1 4.4 3 5.4 5.9 2.2 7.1-5 11.8-4 16 .1 0 0 .1 0 .2l-6.4 2-.2-.1c-.8-2.8.5-6.2 1.9-8.3 1.4-2.1 2.8-5.1 2.2-7.2a3.3 3.3 0 00-3.5-2.5 7 7 0 00-2 .3c-2.7.9-4.2 2.9-4.4 6h-.1l-6.5-1.4-.1-.1c.4-5.4 4.1-9.4 9.3-11 1.3-.4 2.6-.6 4-.6m0-1c-1.5 0-2.9.2-4.3.6a13.6 13.6 0 00-10 12c0 .5.3 1 .9 1.1l6.4 1.5H196.2c.5 0 1-.5 1-1 .3-2.8 1.5-4.4 3.8-5.1a6 6 0 011.7-.3c1.3 0 2.1.6 2.5 1.8.4 1.4-.3 3.8-2 6.4-1.6 2.3-3 5.9-2 9 .1.6.5.9 1 .9h.4l6.4-2c.6-.3.9-.9.7-1.4-.3-1.5.6-3.2 1.7-5.1 1.6-3 3.6-6.5 2.2-11-1-3.2-3-5.5-6-6.6-1.6-.5-3.2-.8-4.8-.8z"/></g></g><g><linearGradient id="SVGID_11_" gradientUnits="userSpaceOnUse" x1="1121.8" y1="-58.9" x2="1074.7" y2="-58.9" gradientTransform="matrix(0 -1 -1 0 38 1276.6)"><stop offset=".2" stop-color="#55ec36"/><stop offset=".3" stop-color="#45d627"/><stop offset=".5" stop-color="#39c61c"/><stop offset=".7" stop-color="#32bd15"/><stop offset="1" stop-color="#30ba13"/></linearGradient><path d="M99.1 155.8l17.9 20.4c1.5 1.9.2 4.7-2.2 4.7h-7v18.7c0 1.3-1 2.3-2.3 2.3h-17c-1.3 0-2.4-1-2.4-2.3v-18.7h-7a2.8 2.8 0 01-2-4.7l17.8-20.4a2.8 2.8 0 014.2 0z" fill="url(#SVGID_11_)" stroke="#162f0d" stroke-width="2" stroke-linecap="round" stroke-miterlimit="10"/><linearGradient id="SVGID_12_" gradientUnits="userSpaceOnUse" x1="1121.8" y1="-113.4" x2="1074.7" y2="-113.4" gradientTransform="matrix(0 -1 -1 0 38 1276.6)"><stop offset=".2" stop-color="#55ec36"/><stop offset=".3" stop-color="#45d627"/><stop offset=".5" stop-color="#39c61c"/><stop offset=".7" stop-color="#32bd15"/><stop offset="1" stop-color="#30ba13"/></linearGradient><path d="M153.6 155.8l17.8 20.4c1.6 1.9.3 4.7-2 4.7h-7v18.7c0 1.3-1.1 2.3-2.4 2.3h-17c-1.3 0-2.4-1-2.4-2.3v-18.7h-7a2.8 2.8 0 01-2-4.7l17.8-20.4a2.8 2.8 0 014.2 0z" fill="url(#SVGID_12_)" stroke="#162f0d" stroke-width="2" stroke-linecap="round" stroke-miterlimit="10"/><linearGradient id="SVGID_13_" gradientUnits="userSpaceOnUse" x1="1121.8" y1="-166.9" x2="1074.7" y2="-166.9" gradientTransform="matrix(0 -1 -1 0 38 1276.6)"><stop offset=".2" stop-color="#55ec36"/><stop offset=".3" stop-color="#45d627"/><stop offset=".5" stop-color="#39c61c"/><stop offset=".7" stop-color="#32bd15"/><stop offset="1" stop-color="#30ba13"/></linearGradient><path d="M207 155.8l17.9 20.4c1.6 1.9.3 4.7-2.1 4.7h-7v18.7c0 1.3-1 2.3-2.4 2.3h-17c-1.3 0-2.3-1-2.3-2.3v-18.7h-7a2.8 2.8 0 01-2.1-4.7l17.8-20.4a2.8 2.8 0 014.2 0z" fill="url(#SVGID_13_)" stroke="#162f0d" stroke-width="2" stroke-linecap="round" stroke-miterlimit="10"/></g><g><path class="st198" d="M100.3 337.4c-23.2 0-33.5-2.9-34.5-9.5a91 91 0 01-.1-12.5l.1-7.6c0-7.4 8.8-22.4 21.3-24.3l1.5-.2.2 1.5c0 .2 1.1 5.8 11.5 6.2 10.5-.4 11.5-6.2 11.5-6.2l.2-1.5 1.5.2c12.5 2 21.2 17 21.2 24.3l.2 7.6c.1 5 .2 9.7-.2 12.5-1 6.6-11.2 9.5-34.4 9.5zm0-17.2a2 2 0 100 4 2 2 0 000-4zm0-17.3a2 2 0 100 4 2 2 0 000-4z"/><path class="st71" d="M113.3 285c11.5 1.8 20 15.8 20 22.8s.5 15.8 0 19.9c-.7 4.6-7.7 8.2-33 8.2s-32.3-3.6-33-8.2c-.6-4.1 0-12.9 0-19.9 0-7 8.5-21 20-22.8 0 0 1 7 13 7.5 12-.5 13-7.5 13-7.5m-13 23.4a3.5 3.5 0 100-7 3.5 3.5 0 000 7m0 17.3a3.5 3.5 0 100-7 3.5 3.5 0 000 7M90 281.4l-3.1.6c-12.9 2-22.6 17-22.6 25.8l-.1 7.5c-.1 5-.3 9.8.1 12.8 1.1 7.6 11.6 10.8 36 10.8s34.8-3.2 36-10.8c.3-3 .2-7.7 0-12.8v-7.5c0-8.8-9.7-23.8-22.6-25.8l-3.2-.4-.2 3c-.1.4-1.5 4.5-10 5-8.6-.5-9.9-4.6-10-5l-.3-3.2zm10.3 24a.5.5 0 110-1 .5.5 0 010 1zm0 17.3a.5.5 0 110-1 .5.5 0 010 1z"/><path class="st198" d="M100 286.5c-1.4 0-5 0-6.4-.3-19.2-3.8-21.3-25-21.3-33.9 0-22.2 9.8-34.4 27.6-34.4 18.3 0 28.4 12.2 28.4 34.4 0 13.8-3.9 30.9-22.3 34a51 51 0 01-6 .2z"/><path class="st71" d="M100 219.4c17.3 0 26.8 11.4 26.8 32.9 0 21.6-9 30.5-21 32.5a49.5 49.5 0 01-11.9 0c-10.4-2.2-20.1-11.3-20.1-32.5 0-21.7 9.3-33 26.1-33m0-3c-10.9 0-29.1 4.7-29.1 36 0 27.9 15.8 34 22.6 35.4a55.5 55.5 0 0012.9 0c19.4-3.2 23.5-21 23.5-35.4 0-11.4-2.6-20.3-7.6-26.4a27.2 27.2 0 00-22.3-9.5z"/><path class="st198" d="M192.7 337.4c-23.2 0-33.5-2.9-34.5-9.5-.4-2.8-.3-7.6-.1-12.5l.1-7.6c0-7.4 8.8-22.4 21.3-24.3l1.5-.2.2 1.5c0 .2 1.1 5.8 11.5 6.2 10.3-.4 11.4-6 11.4-6.2l.3-1.5 1.5.2c12.4 2 21.2 17 21.2 24.3l.1 7.5c.2 5 .3 9.8 0 12.6-1 6.6-11.3 9.5-34.5 9.5zm0-17.2a2 2 0 100 4 2 2 0 000-4zm0-17.3a2 2 0 100 4 2 2 0 000-4z"/><path class="st71" d="M205.6 285c11.6 1.8 20 15.8 20 22.8s.6 15.8 0 19.9c-.6 4.6-7.7 8.2-33 8.2-25.2 0-32.3-3.6-33-8.2-.5-4.1.1-12.9.1-19.9 0-7 8.5-21 20-22.8 0 0 1 7 13 7.5 11.9-.5 13-7.5 13-7.5m-13 23.4a3.5 3.5 0 100-7 3.5 3.5 0 000 7m0 17.3a3.5 3.5 0 100-7 3.5 3.5 0 000 7m-10.3-44.3l-3.2.6c-12.8 2-22.5 17-22.5 25.8l-.1 7.5c-.2 5-.3 9.8.1 12.8 1.1 7.6 11.5 10.8 36 10.8 24.4 0 34.8-3.2 35.9-10.8.4-3 .3-7.7.1-12.8l-.1-7.5c0-8.8-9.7-23.8-22.5-25.8l-3.2-.4-.2 3c-.2.4-1.5 4.5-10 5-8.6-.5-10-4.6-10-5l-.3-3.2zm10.3 24a.5.5 0 110-1 .5.5 0 010 1zm0 17.3a.5.5 0 110-1 .5.5 0 010 1z"/><g><path class="st198" d="M192.4 286.5c-1.5 0-5 0-6.4-.3-19.2-3.8-21.3-25-21.3-33.9 0-22.2 9.8-34.4 27.6-34.4 18.3 0 28.3 12.2 28.3 34.4 0 13.8-3.8 30.9-22.2 34a51 51 0 01-6 .2z"/><path class="st71" d="M192.3 219.4c17.4 0 26.8 11.4 26.8 32.9 0 21.6-9 30.5-21 32.5a49.6 49.6 0 01-11.8 0c-10.5-2.2-20.1-11.3-20.1-32.5 0-21.7 9.3-33 26.1-33m0-3c-10.9 0-29.1 4.7-29.1 36 0 27.9 15.8 34 22.5 35.4 1.5.3 4.8.3 6.7.3 1 0 4.7 0 6.2-.3 19.5-3.2 23.5-21 23.5-35.4 0-11.4-2.5-20.3-7.5-26.4a27.2 27.2 0 00-22.3-9.5z"/></g><g><path class="st198" d="M147.1 367.2c-23.2 0-33.5-2.8-34.4-9.4-.4-2.9-.3-7.6-.2-12.6l.2-7.5c0-7.4 8.7-22.4 21.2-24.3l1.5-.2.2 1.5c0 .2 1.2 5.7 11.5 6.2 10.4-.5 11.5-6 11.5-6.3l.3-1.4 1.4.2c12.5 1.9 21.3 16.9 21.3 24.3l.1 7.5c.2 5 .3 9.7-.1 12.6-1 6.6-11.3 9.4-34.5 9.4zm0-17.1a2 2 0 100 4 2 2 0 000-4zm0-17.3a2 2 0 100 4 2 2 0 000-4z"/><path class="st71" d="M160 314.9c11.6 1.7 20 15.8 20 22.8s.7 15.7 0 19.9c-.6 4.5-7.6 8.1-32.9 8.1-25.3 0-32.3-3.6-33-8.1-.5-4.2 0-13 0-19.9 0-7 8.5-21 20-22.8 0 0 1.1 7 13 7.5 12-.5 13-7.5 13-7.5m-13 23.4a3.5 3.5 0 100-7 3.5 3.5 0 000 7m0 17.3a3.5 3.5 0 100-7 3.5 3.5 0 000 7m10.3-44.2l-.3 3c-.1.5-1.4 4.6-10 5-5-.2-7.6-1.8-8.8-3-1-1-1.2-2-1.2-2l-.4-3-3 .5c-12.8 2-22.5 17-22.5 25.8 0 2.4 0 5-.2 7.5-.1 5-.2 9.8.2 12.8 1 7.6 11.5 10.7 36 10.7 24.4 0 34.8-3 35.9-10.7.4-3 .3-7.8.1-12.8l-.1-7.5c0-8.8-9.7-23.8-22.6-25.8l-3.1-.5zm-10.3 24a.5.5 0 110-1.1.5.5 0 010 1zm0 17.2a.5.5 0 110-1 .5.5 0 010 1z"/></g><g><path class="st198" d="M146.8 316.4c-1 0-4.9 0-6.3-.3-19.3-3.9-21.4-25-21.4-34 0-22.1 9.9-34.4 27.7-34.4 18.2 0 28.3 12.3 28.3 34.5 0 13.8-3.9 30.9-22.3 34a51 51 0 01-6 .2z"/><path class="st71" d="M146.8 249.2c17.3 0 26.8 11.5 26.8 33 0 21.6-9 30.5-21 32.4a49.6 49.6 0 01-11.8 0c-10.5-2-20.2-11.2-20.2-32.4 0-21.8 9.3-33 26.2-33m0-3c-11 0-29.2 4.7-29.2 36 0 27.8 15.8 34 22.6 35.3a55 55 0 0012.9 0c19.4-3.1 23.5-21 23.5-35.3 0-11.4-2.5-20.3-7.6-26.4a27.2 27.2 0 00-22.2-9.6z"/></g></g><g class="st360"><text transform="translate(35 82.4)" class="st17 st263" opacity=".5">Monopoly</text><g class="st237"><text transform="translate(32 79.4)" class="st17 st263" fill="#cceffe">Monopoly</text></g></g></g></g></svg>