<svg xmlns="http://www.w3.org/2000/svg" width="292.1" height="406.3"><style>.st1{fill:#7a7a7a}.st17{font-family:&apos;Gilroy-SemiBold&apos;}.st60{fill:#bababa}.st237{display:inline}.st263{font-size:60}.st360{display:none}.st381{fill:#414042}</style><g id="Development_cards"><g id="Knight_1_"><radialGradient id="SVGID_1_" cx="142.8" cy="200.2" r="163.9" gradientTransform="matrix(0 -1 1.0315 0 -63.7 343)" gradientUnits="userSpaceOnUse"><stop offset="0" stop-color="#c889ba"/><stop offset=".2" stop-color="#bf83ba"/><stop offset=".5" stop-color="#a774ba"/><stop offset="1" stop-color="#7f5cba"/><stop offset="1" stop-color="#7c5aba"/></radialGradient><path d="M16.2 390.2A6.2 6.2 0 0110 384V16.4c0-3.4 2.8-6.2 6.2-6.2h253.2c3.4 0 6.1 2.8 6.1 6.2V384c0 3.4-2.7 6.2-6.1 6.2H16.2z" fill="url(#SVGID_1_)"/><path d="M265.5 20.2v360H20v-360h245.5m3.9-20H16.2C7.2.2 0 7.4 0 16.4V384c0 9 7.3 16.2 16.2 16.2h253.2c9 0 16.1-7.3 16.1-16.2V16.4c0-9-7.2-16.2-16.1-16.2z" fill="#c99ee8"/><path class="st381" d="M269.4 10.2c3.4 0 6.1 2.8 6.1 6.2V384c0 3.4-2.7 6.2-6.1 6.2H16.2A6.2 6.2 0 0110 384V16.4c0-3.4 2.8-6.2 6.2-6.2h253.2m0-10H16.2C7.2.2 0 7.4 0 16.4V384c0 9 7.3 16.2 16.2 16.2h253.2c9 0 16.1-7.3 16.1-16.2V16.4c0-9-7.2-16.2-16.1-16.2z"/></g><g id="Card_x5F_Icons"><g id="Knight"><path d="M239.4 312.7c0 21.8-42.5 41.6-95 41.6s-95-19.8-95-41.6c0-21.7 42.5-39.4 95-39.4s95 17.7 95 39.4z" opacity=".4" fill="#231f20"/><path class="st60" d="M143 332.6a92.3 92.3 0 01-48.5-12.4c-12.2-7.6-19.2-18-19.2-28.6 0-29.4 29.1-51.5 67.7-51.5 19.2 0 36.5 5 48.9 14.4a46 46 0 0119.2 37c0 19.8-26 41.1-68 41.1z"/><path class="st381" d="M143 242c39 0 66.1 21 66.1 49.6 0 19.8-27.2 39-66 39-39 0-65.8-19.2-65.8-39 0-27.2 26.8-49.5 65.7-49.5m0-4c-39.7 0-69.7 23-69.7 53.5 0 11.2 7.4 22.3 20.2 30.3a94.3 94.3 0 0049.5 12.7c19 0 36.7-4.5 49.8-12.7 13-8 20.3-19.1 20.3-30.3 0-15.2-7.1-29-20-38.7a83.3 83.3 0 00-50-14.8z"/><path class="st1" d="M208 283c1.4 10.7 4.4 23.2-23.7 39-1.5.9 8.6-3.2 7.6-15-.5-6.2-4.2-11.4-6-11-6 1.2-20 9.8-42.9 9.5-30.5-.3-55.2-13-55.2-29 0-15.9 24.7-28.9 55.2-28.9 30.6 0 62.2 12.7 65 35.4z"/><path class="st60" d="M143 292.9c-19.3 0-43.4-6.2-52.3-17.9-10.3-13.7-15.4-34.8-15.4-64.3 0-25.5 8-46.3 23-60 12-11 28.4-17.3 45-17.3 12.5 0 30.9 1.4 45.3 13.3 15 12.3 22.5 33.9 22.5 64 0 31-6.7 55.4-18.4 66.6-10 9.6-29 15.6-49.7 15.6z"/><path class="st381" d="M143.2 135.4c29.7 0 66 9 66 75.3 0 29-6 53.8-17.9 65.2-9.7 9.4-28.5 15-48.3 15-19.1 0-42.3-6-50.7-17.1-10.2-13.6-15-34.8-15-63.1 0-55.8 37.7-75.3 66-75.3m0-4c-17.1 0-34 6.5-46.3 17.8-15.5 14.1-23.7 35.4-23.7 61.5 0 30 5.2 51.4 15.8 65.5a47.4 47.4 0 0023.3 14.1c9.5 3 20.3 4.6 30.6 4.6 21.2 0 40.8-6.2 51.1-16.1 12.1-11.7 19-36.5 19-68.1 0-30.8-7.8-52.8-23.3-65.6-14.9-12.3-33.7-13.7-46.6-13.7z"/><path class="st1" d="M209.1 210.7c1.4 46-17.8 65.2-17.8 65.2s9.1-33.8 9.1-53c0-23.2-10.2-49.5-17-44.3-20 15-43.7 11.2-59 9.4-16.9-1.9-34-25.2-31.6-28.7 16.3-25 22.2-23.9 50.4-23.9 29.7 0 63.8 4.1 66 75.3z"/><g><path class="st60" d="M143 176.8c-41.7 0-57.2-35.2-57.2-57.3 0-28.8 10-63.2 57.4-63.2 17.7 0 30.9 4.3 40.4 13.3 11 10.4 16.7 27.2 16.7 49.9 0 21.3-12 57.3-57.3 57.3z"/><path class="st381" d="M143.2 58.3c30.5 0 55.1 13.6 55.1 61.2 0 23.2-13.6 55.3-55.3 55.3-41.6 0-55.2-35.6-55.2-55.3 0-46.6 24.9-61.2 55.4-61.2m0-4c-27.1 0-59.4 11.3-59.4 65.2 0 23 16 59.3 59.2 59.3 19.8 0 35.9-7.1 46.4-20.5a63.6 63.6 0 0013-38.8c0-43.3-20-65.2-59.2-65.2z"/></g><path class="st1" d="M198.3 119.5c0 13-4.3 28.9-15.5 40.3-8.7 8.8 24-38.2-4.8-71.3C147.7 54 102.5 73 102.5 73s11.8-14.7 40.7-14.7c30.5 0 55.1 13.6 55.1 61.2z"/></g><g class="st360"><text transform="translate(59.3 86.4)" class="st17 st263" opacity=".5">Knight</text><g class="st237"><text transform="translate(56.3 83.4)" class="st17 st263" fill="#cceffe">Knight</text></g></g></g></g></svg>